<svg width="40" height="20" viewBox="0 0 40 20" fill="none" xmlns="http://www.w3.org/2000/svg">
<g id="hallym_logo_mint">
<g id="g1590">
<path id="path1592" d="M2.99142 9.12716C4.68594 9.28898 4.53975 9.80567 5.74514 11.0064C7.35323 12.6061 8.92547 12.6944 10.0435 11.8127C9.36772 11.604 8.58804 11.0468 8.1559 10.6359C6.94041 9.49308 6.60021 7.98068 3.01073 9.01592C2.85075 9.06189 2.88844 9.11613 2.99142 9.12716Z" fill="#767676"/>
</g>
<g id="g1594">
<path id="path1596" d="M39.7317 6.72458C34.2602 4.28452 28.67 5.6636 24.1739 9.68133C19.7928 13.597 16.7973 18.205 10.9175 18.3061C15.4181 19.8673 24.2925 19.2816 29.1582 14.4162C29.2879 14.281 29.1886 14.2976 29.1058 14.3436C26.2905 16.049 21.833 16.8866 19.9151 16.2577C25.0106 12.9608 29.0819 7.19163 39.7097 6.94339C40.1004 6.90018 40.0857 6.88179 39.7317 6.72458Z" fill="#767676"/>
</g>
<g id="g1598">
<path id="path1600" d="M10.5083 15.7036C9.50983 15.7174 8.48466 15.1574 7.88243 14.7529C6.99793 14.1617 6.37271 13.3058 5.68497 12.631C4.56509 11.5286 2.68852 10.7113 0.120531 11.7392C-0.0183045 11.7943 -0.0486459 11.8614 0.0901892 11.8679C2.44763 11.9883 2.36672 12.2752 4.34443 14.4697C5.68313 15.9527 9.24411 16.372 10.5083 15.7036Z" fill="#767676"/>
</g>
<g id="g1602">
<path id="path1604" d="M35.0298 3.94353C34.1949 3.44614 31.0642 1.84181 28.0108 2.15808C26.4293 2.32173 25.052 2.74097 23.6655 3.73299C23.0109 4.15407 22.5585 4.47218 22.1622 4.76731C22.131 4.79121 21.9783 4.90614 21.9351 4.93923C20.6819 5.86782 19.585 6.32751 18.9515 6.53713C18.7281 6.60609 18.5295 6.65941 18.3732 6.7017C20.4208 4.07868 22.6293 1.57151 25.3536 0.506857C25.4382 0.472839 25.4373 0.36343 25.3472 0.342285C22.0363 -0.488844 18.5709 -0.0217934 15.8411 4.1743C12.7325 8.95237 10.8752 14.6498 6.57774 12.5904C9.23308 15.1169 12.51 14.0237 15.329 10.6109C15.7243 10.1273 16.1252 9.62168 16.5224 9.10683L16.9931 8.49451C18.3355 8.39614 19.3239 8.06975 19.8884 7.83255L18.9607 9.10683C15.8788 13.3333 11.7441 18.4055 5.60498 15.8993C12.692 20.6139 17.9935 13.8343 20.6258 11.3566C23.8862 8.295 27.1658 4.37289 35.0371 4.15591C35.2155 4.1504 35.3433 4.12833 35.0298 3.94353Z" fill="#00A8A3"/>
</g>
</g>
</svg>
