<svg width="44" height="53" viewBox="0 0 44 53" fill="none" xmlns="http://www.w3.org/2000/svg">
<g id="Vector" filter="url(#filter0_d_448_3860)">
<path fill-rule="evenodd" clip-rule="evenodd" d="M22 42.7494L23.593 44.3379C23.384 44.5477 23.1355 44.7142 22.862 44.8279C22.5884 44.9415 22.2951 45 21.9989 45C21.7027 45 21.4093 44.9415 21.1358 44.8279C20.8622 44.7142 20.6138 44.5477 20.4048 44.3379L20.3913 44.3221L20.353 44.2839L20.2135 44.1421C19.4204 43.3251 18.6403 42.4955 17.8735 41.6536C15.9484 39.5442 14.105 37.3617 12.3475 35.1107C10.3405 32.5233 8.2885 29.5983 6.72925 26.7094C5.20375 23.8767 4 20.8077 4 17.9997C4 7.78714 12.082 0 22 0C31.918 0 40 7.78714 40 17.9997C40 20.8077 38.7963 23.8767 37.2708 26.7071C35.7115 29.6006 33.6618 32.5233 31.6525 35.1107C29.1941 38.2599 26.5683 41.2747 23.7865 44.1421L23.647 44.2839L23.6087 44.3221L23.5952 44.3356L22 42.7494ZM24.25 11.2498C24.25 10.6531 24.0129 10.0808 23.591 9.65887C23.169 9.23692 22.5967 8.99987 22 8.99987C21.4033 8.99987 20.831 9.23692 20.409 9.65887C19.9871 10.0808 19.75 10.6531 19.75 11.2498V15.7498H15.25C14.6533 15.7498 14.081 15.9868 13.659 16.4088C13.2371 16.8307 13 17.403 13 17.9997C13 18.5965 13.2371 19.1688 13.659 19.5907C14.081 20.0127 14.6533 20.2497 15.25 20.2497H19.75V24.7496C19.75 25.3464 19.9871 25.9187 20.409 26.3406C20.831 26.7626 21.4033 26.9996 22 26.9996C22.5967 26.9996 23.169 26.7626 23.591 26.3406C24.0129 25.9187 24.25 25.3464 24.25 24.7496V20.2497H28.75C29.3467 20.2497 29.919 20.0127 30.341 19.5907C30.7629 19.1688 31 18.5965 31 17.9997C31 17.403 30.7629 16.8307 30.341 16.4088C29.919 15.9868 29.3467 15.7498 28.75 15.7498H24.25V11.2498Z" fill="#FFC700"/>
<path d="M22.7051 42.0403L21.2939 43.4575L21.2949 43.4585L21.2952 43.4588L21.8259 43.988C21.7208 43.9733 21.6178 43.9453 21.5194 43.9044C21.3772 43.8453 21.2473 43.7606 21.1361 43.6545L21.1255 43.6422L21.0983 43.615L21.0657 43.5824L21.0601 43.5767L20.931 43.4456C20.9302 43.4447 20.9293 43.4438 20.9285 43.443C20.1436 42.6344 19.3716 41.8134 18.6128 40.9803L18.6121 40.9795C16.7046 38.8894 14.8781 36.7268 13.1366 34.4964C11.1474 31.9318 9.13215 29.0559 7.60948 26.2348C6.10621 23.4433 5 20.5541 5 17.9997C5 8.35012 12.6235 1 22 1C31.3765 1 39 8.35012 39 17.9997C39 20.5542 37.8937 23.4436 36.3905 26.2327L36.3904 26.2327C34.8678 29.0582 32.8548 31.9319 30.8636 34.4962C28.5793 37.4223 26.1492 40.2313 23.5825 42.9127L22.7061 42.0413L22.7051 42.0403ZM25.25 11.2498C25.25 10.3879 24.9076 9.56124 24.2981 8.95176C23.6886 8.34227 22.8619 7.99987 22 7.99987C21.1381 7.99987 20.3114 8.34227 19.7019 8.95176C19.0924 9.56124 18.75 10.3879 18.75 11.2498V14.7498H15.25C14.3881 14.7498 13.5614 15.0922 12.9519 15.7017C12.3424 16.3111 12 17.1378 12 17.9997C12 18.8617 12.3424 19.6883 12.9519 20.2978C13.5614 20.9073 14.3881 21.2497 15.25 21.2497H18.75V24.7496C18.75 25.6116 19.0924 26.4382 19.7019 27.0477C20.3114 27.6572 21.1381 27.9996 22 27.9996C22.8619 27.9996 23.6886 27.6572 24.2981 27.0477C24.9076 26.4382 25.25 25.6116 25.25 24.7496V21.2497H28.75C29.6119 21.2497 30.4386 20.9073 31.0481 20.2978C31.6576 19.6883 32 18.8617 32 17.9997C32 17.1378 31.6576 16.3111 31.0481 15.7017C30.4386 15.0922 29.6119 14.7498 28.75 14.7498H25.25V11.2498Z" stroke="#B5900A" stroke-width="2"/>
</g>
<defs>
<filter id="filter0_d_448_3860" x="0" y="0" width="44" height="53" filterUnits="userSpaceOnUse" color-interpolation-filters="sRGB">
<feFlood flood-opacity="0" result="BackgroundImageFix"/>
<feColorMatrix in="SourceAlpha" type="matrix" values="0 0 0 0 0 0 0 0 0 0 0 0 0 0 0 0 0 0 127 0" result="hardAlpha"/>
<feOffset dy="4"/>
<feGaussianBlur stdDeviation="2"/>
<feComposite in2="hardAlpha" operator="out"/>
<feColorMatrix type="matrix" values="0 0 0 0 0.345833 0 0 0 0 0.284126 0 0 0 0 0.0648438 0 0 0 0.47 0"/>
<feBlend mode="normal" in2="BackgroundImageFix" result="effect1_dropShadow_448_3860"/>
<feBlend mode="normal" in="SourceGraphic" in2="effect1_dropShadow_448_3860" result="shape"/>
</filter>
</defs>
</svg>
