<svg width="122" height="150" viewBox="0 0 122 150" fill="none" xmlns="http://www.w3.org/2000/svg">
<g id="Vector" filter="url(#filter0_d_445_1184)">
<path fill-rule="evenodd" clip-rule="evenodd" d="M61 134.898L66.0445 139.911C65.3825 140.573 64.5958 141.098 63.7295 141.457C62.8633 141.815 61.9345 142 60.9964 142C60.0584 142 59.1296 141.815 58.2633 141.457C57.3971 141.098 56.6104 140.573 55.9484 139.911L55.9056 139.861L55.7845 139.74L55.3428 139.293C52.8311 136.715 50.3608 134.097 47.9328 131.44C41.8366 124.784 35.9993 117.897 30.4338 110.794C24.0783 102.629 17.5802 93.3991 12.6426 84.2829C7.81187 75.3441 4 65.6598 4 56.7992C4 24.5727 29.593 0 61 0C92.407 0 118 24.5727 118 56.7992C118 65.6598 114.188 75.3441 109.357 84.2758C104.42 93.4062 97.9289 102.629 91.5663 110.794C83.7813 120.731 75.4663 130.245 66.6572 139.293L66.2155 139.74L66.0944 139.861L66.0516 139.903L61 134.898ZM68.125 35.4995C68.125 33.6165 67.3743 31.8106 66.0381 30.4791C64.7019 29.1476 62.8897 28.3996 61 28.3996C59.1103 28.3996 57.2981 29.1476 55.9619 30.4791C54.6257 31.8106 53.875 33.6165 53.875 35.4995V49.6993H39.625C37.7353 49.6993 35.9231 50.4473 34.5869 51.7788C33.2507 53.1103 32.5 54.9162 32.5 56.7992C32.5 58.6822 33.2507 60.4881 34.5869 61.8196C35.9231 63.151 37.7353 63.8991 39.625 63.8991H53.875V78.0989C53.875 79.9819 54.6257 81.7878 55.9619 83.1192C57.2981 84.4507 59.1103 85.1988 61 85.1988C62.8897 85.1988 64.7019 84.4507 66.0381 83.1192C67.3743 81.7878 68.125 79.9819 68.125 78.0989V63.8991H82.375C84.2647 63.8991 86.0769 63.151 87.4131 61.8196C88.7493 60.4881 89.5 58.6822 89.5 56.7992C89.5 54.9162 88.7493 53.1103 87.4131 51.7788C86.0769 50.4473 84.2647 49.6993 82.375 49.6993H68.125V35.4995Z" fill="#66CBC8"/>
<path d="M63.1116 132.767L58.8854 137.026L58.8884 137.029L60.87 138.998C60.3686 138.983 59.8741 138.877 59.4107 138.685C58.9384 138.489 58.5075 138.209 58.1395 137.857L58.1048 137.817L58.0233 137.736L57.919 137.632L57.9022 137.615L57.4916 137.199C57.4891 137.197 57.4866 137.194 57.484 137.192C54.9972 134.639 52.5513 132.047 50.1472 129.416L50.1451 129.414C44.1022 122.816 38.3158 115.989 32.7987 108.948C26.4963 100.851 20.1083 91.7675 15.2805 82.8541C10.5169 74.0391 7 64.8961 7 56.7992C7 26.2716 31.2076 3 61 3C90.7924 3 115 26.2716 115 56.7992C115 64.8967 111.482 74.0407 106.719 82.8486L106.719 82.8487C101.891 91.7755 95.5105 100.852 89.2019 108.947C81.9293 118.23 74.1901 127.14 66.0142 135.643L63.1146 132.77L63.1116 132.767ZM71.125 35.4995C71.125 32.8174 70.0557 30.2473 68.1557 28.354C66.2561 26.4611 63.6819 25.3996 61 25.3996C58.3181 25.3996 55.7439 26.4611 53.8443 28.354C51.9443 30.2473 50.875 32.8174 50.875 35.4995V46.6993H39.625C36.9431 46.6993 34.3689 47.7608 32.4693 49.6537C30.5693 51.547 29.5 54.1171 29.5 56.7992C29.5 59.4813 30.5693 62.0513 32.4693 63.9446C34.3689 65.8375 36.9431 66.8991 39.625 66.8991H50.875V78.0989C50.875 80.7809 51.9443 83.351 53.8443 85.2443C55.7439 87.1372 58.3181 88.1988 61 88.1988C63.6819 88.1988 66.2561 87.1372 68.1557 85.2443C70.0557 83.351 71.125 80.7809 71.125 78.0989V66.8991H82.375C85.0569 66.8991 87.6311 65.8375 89.5307 63.9446C91.4307 62.0513 92.5 59.4813 92.5 56.7992C92.5 54.1171 91.4307 51.547 89.5307 49.6537C87.6311 47.7608 85.0569 46.6993 82.375 46.6993H71.125V35.4995Z" stroke="#00A8A3" stroke-width="6"/>
</g>
<defs>
<filter id="filter0_d_445_1184" x="0.2" y="0" width="121.6" height="149.8" filterUnits="userSpaceOnUse" color-interpolation-filters="sRGB">
<feFlood flood-opacity="0" result="BackgroundImageFix"/>
<feColorMatrix in="SourceAlpha" type="matrix" values="0 0 0 0 0 0 0 0 0 0 0 0 0 0 0 0 0 0 127 0" result="hardAlpha"/>
<feOffset dy="4"/>
<feGaussianBlur stdDeviation="1.9"/>
<feComposite in2="hardAlpha" operator="out"/>
<feColorMatrix type="matrix" values="0 0 0 0 0 0 0 0 0 0.304167 0 0 0 0 0.295114 0 0 0 0.69 0"/>
<feBlend mode="normal" in2="BackgroundImageFix" result="effect1_dropShadow_445_1184"/>
<feBlend mode="normal" in="SourceGraphic" in2="effect1_dropShadow_445_1184" result="shape"/>
</filter>
</defs>
</svg>
