<svg width="19" height="19" viewBox="0 0 19 19" fill="none" xmlns="http://www.w3.org/2000/svg">
<g id="move_btn">
<rect id="Rectangle 57" x="3" y="4" width="13" height="11" fill="white"/>
<path id="Vector" d="M19 9.5C19 7.62108 18.4428 5.78435 17.399 4.22209C16.3551 2.65982 14.8714 1.44218 13.1355 0.723148C11.3996 0.00411585 9.48946 -0.184016 7.64665 0.182544C5.80383 0.549103 4.11109 1.45389 2.78249 2.78249C1.45389 4.11109 0.549104 5.80383 0.182544 7.64664C-0.184016 9.48946 0.00411556 11.3996 0.723148 13.1355C1.44218 14.8714 2.65982 16.3551 4.22209 17.399C5.78435 18.4428 7.62108 19 9.5 19C12.0196 19 14.4359 17.9991 16.2175 16.2175C17.9991 14.4359 19 12.0196 19 9.5ZM9.75532 14.25C9.6001 14.0913 9.51319 13.8782 9.51319 13.6563C9.51319 13.4343 9.6001 13.2212 9.75532 13.0625L12.4688 10.3313L4.07313 10.3313C3.85267 10.3313 3.64124 10.2437 3.48535 10.0878C3.32946 9.9319 3.24188 9.72046 3.24188 9.5C3.24188 9.27954 3.32946 9.06811 3.48535 8.91222C3.64124 8.75633 3.85267 8.66875 4.07313 8.66875L12.3856 8.66875L9.75532 6.03844C9.59784 5.88097 9.50938 5.66739 9.50938 5.44469C9.50938 5.22199 9.59784 5.00841 9.75532 4.85094C9.91279 4.69347 10.1264 4.605 10.3491 4.605C10.5718 4.605 10.7853 4.69347 10.9428 4.85094L15.6156 9.5475L10.9309 14.25C10.8537 14.3272 10.7621 14.3884 10.6613 14.4302C10.5604 14.472 10.4523 14.4935 10.3431 14.4935C10.234 14.4935 10.1259 14.472 10.025 14.4302C9.92414 14.3884 9.83251 14.3272 9.75532 14.25Z" fill="#00A8A3"/>
</g>
</svg>
