<svg width="51" height="48" viewBox="0 0 51 48" fill="none" xmlns="http://www.w3.org/2000/svg">
<path id="jam_selected_icon" d="M8.57551 9.78394C8.57551 8.16215 9.22086 6.60678 10.3696 5.46001C11.5183 4.31323 13.0763 3.66898 14.7009 3.66898C16.3254 3.66898 17.8834 4.31323 19.0322 5.46001C20.1809 6.60678 20.8262 8.16215 20.8262 9.78394C20.8262 11.4057 20.1809 12.9611 19.0322 14.1079C17.8834 15.2546 16.3254 15.8989 14.7009 15.8989C13.0763 15.8989 11.5183 15.2546 10.3696 14.1079C9.22086 12.9611 8.57551 11.4057 8.57551 9.78394ZM14.7009 0C12.1016 0 9.60878 1.0308 7.77081 2.86565C5.93285 4.70049 4.90029 7.18908 4.90029 9.78394C4.90029 12.3788 5.93285 14.8674 7.77081 16.7022C9.60878 18.5371 12.1016 19.5679 14.7009 19.5679C17.3001 19.5679 19.793 18.5371 21.6309 16.7022C23.4689 14.8674 24.5014 12.3788 24.5014 9.78394C24.5014 7.18908 23.4689 4.70049 21.6309 2.86565C19.793 1.0308 17.3001 0 14.7009 0ZM33.077 12.2299C33.077 11.2568 33.4642 10.3236 34.1534 9.63556C34.8426 8.9475 35.7774 8.56095 36.7522 8.56095C37.7269 8.56095 38.6617 8.9475 39.3509 9.63556C40.0402 10.3236 40.4274 11.2568 40.4274 12.2299C40.4274 13.203 40.0402 14.1362 39.3509 14.8243C38.6617 15.5123 37.7269 15.8989 36.7522 15.8989C35.7774 15.8989 34.8426 15.5123 34.1534 14.8243C33.4642 14.1362 33.077 13.203 33.077 12.2299ZM36.7522 4.89197C34.8027 4.89197 32.9331 5.66507 31.5546 7.04121C30.1762 8.41734 29.4017 10.2838 29.4017 12.2299C29.4017 14.1761 30.1762 16.0425 31.5546 17.4186C32.9331 18.7948 34.8027 19.5679 36.7522 19.5679C38.7016 19.5679 40.5712 18.7948 41.9497 17.4186C43.3282 16.0425 44.1026 14.1761 44.1026 12.2299C44.1026 10.2838 43.3282 8.41734 41.9497 7.04121C40.5712 5.66507 38.7016 4.89197 36.7522 4.89197ZM5.51283 24.4598C4.05073 24.4598 2.64852 25.0397 1.61467 26.0718C0.580814 27.1039 0 28.5037 0 29.9633V30.6433C0.00256664 30.8134 0.014016 30.9832 0.0343019 31.1521C0.237954 32.9718 0.893141 34.7121 1.94051 36.2152C3.94473 39.0722 7.77186 41.5817 14.7009 41.5817C18.0551 41.5817 20.6817 40.9947 22.7275 40.0652C22.3557 38.8327 22.1352 37.5596 22.0709 36.2739C20.4906 37.2034 18.1629 37.9128 14.7009 37.9128C8.76662 37.9128 6.15966 35.8337 4.94929 34.1093C4.26388 33.1207 3.83225 31.9793 3.69237 30.7852L3.67522 30.5919V29.9633C3.67522 29.4768 3.86882 29.0102 4.21344 28.6661C4.55806 28.3221 5.02546 28.1288 5.51283 28.1288H23.8448C24.4549 26.9621 25.2046 25.881 26.072 24.9075C25.3835 24.6081 24.6399 24.4556 23.8889 24.4598H5.51283ZM30.0804 26.8471C30.2633 27.4795 30.3164 28.1422 30.2366 28.7956C30.1568 29.449 29.9458 30.0795 29.6161 30.6496C29.2865 31.2196 28.845 31.7173 28.3181 32.113C27.7912 32.5087 27.1898 32.7941 26.5498 32.9523L25.1189 33.307C24.8883 34.7717 24.8933 36.2637 25.1336 37.7269L26.4567 38.0448C27.1025 38.2001 27.7099 38.4849 28.2421 38.8818C28.7742 39.2787 29.22 39.7795 29.5523 40.3537C29.8846 40.9279 30.0964 41.5636 30.175 42.2221C30.2536 42.8806 30.1972 43.5482 30.0094 44.1843L29.5512 45.7277C30.6293 46.6718 31.8543 47.4399 33.1897 47.9829L34.3976 46.7134C34.8553 46.2327 35.4062 45.85 36.0168 45.5885C36.6273 45.3269 37.2847 45.1921 37.9491 45.1921C38.6134 45.1921 39.2709 45.3269 39.8814 45.5885C40.4919 45.85 41.0428 46.2327 41.5006 46.7134L42.7232 48C44.0486 47.4605 45.2755 46.7059 46.3543 45.7668L45.8692 44.0889C45.6864 43.4563 45.6334 42.7934 45.7133 42.1399C45.7932 41.4864 46.0045 40.8558 46.3344 40.2857C46.6643 39.7157 47.106 39.218 47.6332 38.8224C48.1603 38.4268 48.7621 38.1416 49.4023 37.9837L50.8307 37.629C51.0613 36.1643 51.0563 34.6723 50.816 33.2091L49.4929 32.8912C48.8473 32.7356 48.2402 32.4506 47.7083 32.0536C47.1764 31.6566 46.7309 31.1557 46.3989 30.5816C46.0668 30.0074 45.8552 29.3718 45.7767 28.7134C45.6983 28.0551 45.7548 27.3876 45.9427 26.7517L46.3984 25.2083C45.3197 24.261 44.091 23.4989 42.7624 22.9531L41.5545 24.2201C41.0967 24.7012 40.5456 25.0843 39.9349 25.346C39.3241 25.6078 38.6664 25.7428 38.0018 25.7428C37.3371 25.7428 36.6794 25.6078 36.0686 25.346C35.4579 25.0843 34.9068 24.7012 34.449 24.2201L33.2289 22.936C31.896 23.4741 30.6709 24.2324 29.5953 25.1692L30.0804 26.8471ZM37.9772 39.1357C36.0171 39.1357 34.4245 37.4945 34.4245 35.4668C34.4245 33.4415 36.0171 31.7978 37.9772 31.7978C39.9374 31.7978 41.53 33.4415 41.53 35.4668C41.53 37.4945 39.9374 39.1357 37.9772 39.1357Z" fill="#33B9B5"/>
</svg>
