<svg width="49" height="50" viewBox="0 0 49 50" fill="none" xmlns="http://www.w3.org/2000/svg">
<path id="operating_selected_icon" d="M39.1473 38.75L35.5702 42.375C35.3191 42.625 35.1936 42.9167 35.1936 43.25C35.1936 43.5833 35.3191 43.875 35.5702 44.125C35.8212 44.375 36.1141 44.5 36.4488 44.5C36.7835 44.5 37.0763 44.375 37.3273 44.125L42.2223 39.25C42.7244 38.75 42.9754 38.1667 42.9754 37.5C42.9754 36.8333 42.7244 36.25 42.2223 35.75L37.3273 30.875C37.0763 30.625 36.7835 30.5 36.4488 30.5C36.1141 30.5 35.8212 30.625 35.5702 30.875C35.3191 31.125 35.1936 31.4167 35.1936 31.75C35.1936 32.0833 35.3191 32.375 35.5702 32.625L39.21 36.25H30.1731C29.8384 36.25 29.5456 36.375 29.2946 36.625C29.0435 36.875 28.918 37.1667 28.918 37.5C28.918 37.8333 29.0435 38.125 29.2946 38.375C29.5456 38.625 29.8384 38.75 30.1731 38.75H39.1473ZM36.4488 50C32.9762 50 30.0167 48.7808 27.57 46.3425C25.1234 43.9042 23.8992 40.9567 23.8975 37.5C23.8959 34.0433 25.12 31.0958 27.57 28.6575C30.02 26.2192 32.9796 25 36.4488 25C39.9179 25 42.8783 26.2192 45.33 28.6575C47.7817 31.0958 49.005 34.0433 49 37.5C48.995 40.9567 47.7708 43.905 45.3275 46.345C42.8842 48.785 39.9246 50.0033 36.4488 50ZM20.3204 50C19.1908 50 18.3231 49.625 17.7173 48.875C17.1115 48.125 16.7241 47.2083 16.5551 46.125L15.9903 42C15.4464 41.7917 14.9343 41.5417 14.454 41.25C13.9737 40.9583 13.5026 40.6458 13.0407 40.3125L9.14984 41.9375C8.10391 42.3958 7.05797 42.4375 6.01204 42.0625C4.9661 41.6875 4.15027 41.0208 3.56455 40.0625L0.61501 34.9375C0.0292858 33.9792 -0.138063 32.9583 0.112961 31.875C0.363986 30.7917 0.928791 29.8958 1.80738 29.1875L5.13345 26.6875C5.09161 26.3958 5.07069 26.1142 5.07069 25.8425V24.155C5.07069 23.885 5.09161 23.6042 5.13345 23.3125L1.80738 20.8125C0.928791 20.1042 0.363986 19.2083 0.112961 18.125C-0.138063 17.0417 0.0292858 16.0208 0.61501 15.0625L3.56455 9.9375C4.15027 8.97917 4.9661 8.3125 6.01204 7.9375C7.05797 7.5625 8.10391 7.60417 9.14984 8.0625L13.0407 9.6875C13.5009 9.35417 13.9821 9.04167 14.4841 8.75C14.9862 8.45833 15.4882 8.20833 15.9903 8L16.5551 3.875C16.7224 2.79167 17.2144 1.875 18.0311 1.125C18.8478 0.375 19.8201 0 20.948 0H26.8471C27.9767 0 28.9498 0.375 29.7665 1.125C30.5832 1.875 31.0743 2.79167 31.24 3.875L31.8048 8C32.3487 8.20833 32.8616 8.45833 33.3436 8.75C33.8256 9.04167 34.2958 9.35417 34.7543 9.6875L38.6452 8.0625C39.6912 7.60417 40.7371 7.5625 41.783 7.9375C42.829 8.3125 43.6448 8.97917 44.2305 9.9375L47.1801 15.0625C47.7658 16.0208 47.9331 17.0417 47.6821 18.125C47.4311 19.2083 46.8663 20.1042 45.9877 20.8125L44.4815 21.9375C43.9377 22.3958 43.331 22.5725 42.6616 22.4675C41.9922 22.3625 41.4274 22.04 40.9672 21.5C40.507 20.96 40.3187 20.3558 40.4024 19.6875C40.4861 19.0192 40.7999 18.4567 41.3437 18L42.5361 17.125L40.0886 12.875L33.8758 15.5C32.9553 14.5417 31.9404 13.74 30.8308 13.095C29.7213 12.45 28.5189 11.96 27.2236 11.625L26.4078 5H21.45L20.5715 11.625C19.2745 11.9583 18.0721 12.4483 16.9642 13.095C15.8564 13.7417 14.8414 14.5225 13.9193 15.4375L7.70645 12.875L5.25896 17.125L10.656 21.125C10.4468 21.75 10.3004 22.375 10.2167 23C10.133 23.625 10.0912 24.2917 10.0912 25C10.0912 25.6667 10.133 26.3125 10.2167 26.9375C10.3004 27.5625 10.4468 28.1875 10.656 28.8125L5.25896 32.875L7.70645 37.125L13.9193 34.5C14.6305 35.2083 15.3945 35.8442 16.2112 36.4075C17.0278 36.9708 17.9165 37.4392 18.877 37.8125C18.9189 39.6458 19.2226 41.3858 19.7883 43.0325C20.3539 44.6792 21.117 46.1892 22.0776 47.5625C22.4123 48.0625 22.3914 48.5942 22.0148 49.1575C21.6383 49.7208 21.0735 50.0017 20.3204 50ZM24.023 16.25C21.5965 16.25 19.5255 17.0942 17.8102 18.7825C16.0949 20.4708 15.2372 22.5433 15.2372 25C15.2372 25.875 15.3627 26.7292 15.6137 27.5625C15.8647 28.3958 16.2413 29.1875 16.7433 29.9375C17.2035 30.5625 17.8001 30.9583 18.5331 31.125C19.2661 31.2917 19.9246 31.1458 20.5087 30.6875C21.0944 30.2708 21.44 29.7183 21.5454 29.03C21.6509 28.3417 21.4726 27.7483 21.0108 27.25C20.7597 26.9167 20.5715 26.5725 20.4459 26.2175C20.3204 25.8625 20.2577 25.4567 20.2577 25C20.2577 23.9583 20.6242 23.0733 21.3572 22.345C22.0902 21.6167 22.9788 21.2517 24.023 21.25C24.4414 21.25 24.8498 21.3233 25.248 21.47C25.6463 21.6167 26.012 21.8142 26.345 22.0625C26.8471 22.4375 27.4119 22.5733 28.0394 22.47C28.667 22.3667 29.19 22.0225 29.6083 21.4375C30.0267 20.8525 30.1631 20.2067 30.0175 19.5C29.8719 18.7933 29.5054 18.21 28.918 17.75C28.3323 17.25 27.6211 16.875 26.7843 16.625C25.9476 16.375 25.0271 16.25 24.023 16.25Z" fill="#33B9B5"/>
</svg>
