<svg width="53" height="39" viewBox="0 0 53 39" fill="none" xmlns="http://www.w3.org/2000/svg">
<path id="trasfer_icon" d="M24.7333 19.5H10.6V13.2955C10.6 13.5305 10.6931 13.756 10.8587 13.9222C11.0244 14.0884 11.2491 14.1818 11.4833 14.1818H23.85C24.0843 14.1818 24.309 14.0884 24.4746 13.9222C24.6403 13.756 24.7333 13.5305 24.7333 13.2955V11.9659C24.7333 10.2889 23.4419 9.30682 21.753 8.89023C21.68 8.87269 21.6076 8.85318 21.5357 8.83173C20.7442 8.58886 15.7286 7.08559 13.6917 7.09091C12.8717 7.09091 12.0853 7.41775 11.5055 7.99954C10.9257 8.58133 10.6 9.37041 10.6 10.1932V5.31818C10.6 4.61979 10.4629 3.92823 10.1966 3.283C9.93021 2.63777 9.53982 2.0515 9.04767 1.55766C8.55552 1.06382 7.97125 0.672086 7.32822 0.404822C6.6852 0.137558 5.99601 0 5.3 0C4.60399 0 3.9148 0.137558 3.27178 0.404822C2.62875 0.672086 2.04448 1.06382 1.55233 1.55766C1.06018 2.0515 0.669788 2.63777 0.403438 3.283C0.137088 3.92823 -1.03713e-08 4.61979 0 5.31818V31.9091C0 32.8494 0.372261 33.7512 1.03489 34.4161C1.69752 35.081 2.59624 35.4545 3.53333 35.4545H5.3V38.1136C5.3 38.3487 5.39307 38.5742 5.55872 38.7404C5.72438 38.9066 5.94906 39 6.18333 39H9.71667C9.95094 39 10.1756 38.9066 10.3413 38.7404C10.5069 38.5742 10.6 38.3487 10.6 38.1136V35.4545H42.4V38.1136C42.4 38.3487 42.4931 38.5742 42.6587 38.7404C42.8244 38.9066 43.0491 39 43.2833 39H46.8167C47.0509 39 47.2756 38.9066 47.4413 38.7404C47.6069 38.5742 47.7 38.3487 47.7 38.1136V35.4545H49.4667C50.4038 35.4545 51.3025 35.081 51.9651 34.4161C52.6277 33.7512 53 32.8494 53 31.9091V18.6065C53 16.961 52.3485 15.3828 51.1889 14.2193C50.0293 13.0557 48.4566 12.402 46.8167 12.402H27.3833C26.6805 12.402 26.0065 12.6822 25.5095 13.1808C25.0125 13.6795 24.7333 14.3559 24.7333 15.0611V19.5ZM5.3 3.54545C5.76855 3.54545 6.21791 3.73222 6.54922 4.06467C6.88054 4.39713 7.06667 4.84803 7.06667 5.31818V23.0455H24.7333V23.9318C24.7333 24.1669 24.8264 24.3923 24.9921 24.5586C25.1577 24.7248 25.3824 24.8182 25.6167 24.8182H49.4667V31.9091H3.53333V5.31818C3.53333 4.84803 3.71946 4.39713 4.05078 4.06467C4.38209 3.73222 4.83145 3.54545 5.3 3.54545Z" fill="#5B5B5B"/>
</svg>
