<svg width="30" height="19" viewBox="0 0 30 19" fill="none" xmlns="http://www.w3.org/2000/svg">
<path id="robot_icon" d="M0 12.2143V0H16.3636C23.8636 0 30 6.10714 30 13.5714V16.2857H27.0409C26.7605 17.0809 26.2383 17.7696 25.5468 18.256C24.8552 18.7424 24.0286 19.0024 23.1818 19C22.335 19.0024 21.5084 18.7424 20.8169 18.256C20.1253 17.7696 19.6031 17.0809 19.3227 16.2857H12.2727C11.4132 17.4234 10.2162 18.2634 8.85078 18.687C7.48538 19.1106 6.02075 19.0963 4.66394 18.6462C3.30714 18.1961 2.12683 17.3329 1.28988 16.1787C0.45294 15.0245 0.00171247 13.6377 0 12.2143ZM6.81818 8.14285C4.55455 8.14285 2.72727 9.96142 2.72727 12.2143C2.72727 14.4671 4.55455 16.2857 6.81818 16.2857C9.08182 16.2857 10.9091 14.4671 10.9091 12.2143C10.9091 9.96142 9.08182 8.14285 6.81818 8.14285ZM19.0909 6.78571V9.49999H26.25C25.8 8.50928 25.2273 7.59999 24.5455 6.78571H19.0909Z" fill="#5B5B5B"/>
</svg>
