<svg width="29" height="27" viewBox="0 0 29 27" fill="none" xmlns="http://www.w3.org/2000/svg">
<path id="Vector" fill-rule="evenodd" clip-rule="evenodd" d="M1.93333 0V3.85714H0V5.78571H1.93333V27H3.86667V5.78571H11.6V9.64286H8.7C8.44362 9.64286 8.19775 9.74445 8.01646 9.92529C7.83518 10.1061 7.73333 10.3514 7.73333 10.6071V22.1786C7.73333 22.4343 7.83518 22.6796 8.01646 22.8604C8.19775 23.0413 8.44362 23.1429 8.7 23.1429H28.0333C28.2897 23.1429 28.5356 23.0413 28.7169 22.8604C28.8982 22.6796 29 22.4343 29 22.1786V10.6071C29 10.3514 28.8982 10.1061 28.7169 9.92529C28.5356 9.74445 28.2897 9.64286 28.0333 9.64286H25.1333V5.78571H29V3.85714H3.86667V0H1.93333ZM13.5333 9.64286V5.78571H23.2V9.64286H13.5333Z" fill="#5B5B5B"/>
</svg>
