<svg width="21" height="20" viewBox="0 0 21 20" fill="none" xmlns="http://www.w3.org/2000/svg">
<path id="patient_icon" d="M0 18.9474V16.8421H2.11854V0H12.7112V1.05263H16.9483V7.36842H14.8298V3.15789H12.7112V9.47368H10.5927V2.10526H4.23707V16.8421H9.53342V18.9474H0ZM14.8298 20L14.512 18.4211C14.3001 18.3333 14.1017 18.2368 13.9167 18.1316C13.7317 18.0263 13.5505 17.9035 13.3733 17.7632L11.8373 18.2895L10.7781 16.4737L11.9697 15.4211C11.9344 15.1579 11.9168 14.934 11.9168 14.7495C11.9168 14.5649 11.9344 14.3414 11.9697 14.0789L10.7781 13.0263L11.8373 11.2105L13.3733 11.7368C13.5498 11.5965 13.7309 11.4691 13.9167 11.3547C14.1024 11.2404 14.3008 11.1396 14.512 11.0526L14.8298 9.47368H16.9483L17.2661 11.0526C17.4779 11.1404 17.6767 11.2368 17.8624 11.3421C18.0482 11.4474 18.229 11.5702 18.4048 11.7105L19.9407 11.1842L21 13L19.8083 14.0526C19.8436 14.3158 19.8613 14.5397 19.8613 14.7242C19.8613 14.9088 19.8436 15.1323 19.8083 15.3947L21 16.4474L19.9407 18.2632L18.4048 17.7632C18.2282 17.9035 18.0471 18.0263 17.8614 18.1316C17.6757 18.2368 17.4772 18.3333 17.2661 18.4211L16.9483 20H14.8298ZM15.889 16.8421C16.4716 16.8421 16.9705 16.6361 17.3858 16.2242C17.801 15.8123 18.0083 15.3165 18.0076 14.7368C18.0069 14.1572 17.7996 13.6618 17.3858 13.2505C16.972 12.8393 16.473 12.633 15.889 12.6316C15.305 12.6302 14.8065 12.8365 14.3933 13.2505C13.9802 13.6646 13.7726 14.16 13.7705 14.7368C13.7684 15.3137 13.976 15.8095 14.3933 16.2242C14.8107 16.6389 15.3093 16.8449 15.889 16.8421ZM8.47415 10.5263C8.17402 10.5263 7.92262 10.4253 7.71995 10.2232C7.51728 10.0211 7.41559 9.77123 7.41488 9.47368C7.41417 9.17614 7.51586 8.92632 7.71995 8.72421C7.92404 8.52211 8.17544 8.42105 8.47415 8.42105C8.77286 8.42105 9.02462 8.52211 9.22941 8.72421C9.4342 8.92632 9.53554 9.17614 9.53342 9.47368C9.5313 9.77123 9.42961 10.0214 9.22835 10.2242C9.02709 10.427 8.77569 10.5277 8.47415 10.5263Z" fill="#5B5B5B"/>
</svg>
