<svg width="20" height="18" viewBox="0 0 20 18" fill="none" xmlns="http://www.w3.org/2000/svg">
<g id="warn_icon">
<path id="Vector" d="M9.82891 2C10.3899 2 10.9479 2.354 11.3729 3.062L17.2849 12.916C18.1359 14.331 17.4789 15.489 15.8289 15.489H3.82891C2.17891 15.489 1.52191 14.33 2.37291 12.916L8.28491 3.062C8.70991 2.354 9.26791 2 9.82891 2ZM9.82891 0C8.53291 0 7.34691 0.74 6.56991 2.031L0.657909 11.887C-0.128091 13.196 -0.214091 14.592 0.422909 15.717C1.05991 16.842 2.30191 17.489 3.82891 17.489H15.8289C17.3559 17.489 18.5989 16.843 19.2349 15.718C19.8709 14.593 19.7859 13.197 18.9999 11.888L13.0879 2.034C12.3109 0.74 11.1249 0 9.82891 0Z" fill="#5B5B5B"/>
<path id="Vector_2" d="M9.82881 13.789C10.5468 13.789 11.1288 13.2069 11.1288 12.489C11.1288 11.771 10.5468 11.189 9.82881 11.189C9.11084 11.189 8.52881 11.771 8.52881 12.489C8.52881 13.2069 9.11084 13.789 9.82881 13.789Z" fill="#5B5B5B"/>
<path id="Vector_3" d="M11.3288 6.48877C11.3288 5.65877 10.6578 4.98877 9.82882 4.98877C9.58331 4.98881 9.34156 5.04916 9.12482 5.16451C8.90809 5.27986 8.723 5.44667 8.58584 5.6503C8.44867 5.85393 8.36362 6.08813 8.33816 6.33232C8.3127 6.57652 8.34761 6.82323 8.43982 7.05077C8.99382 8.42677 9.82882 10.4888 9.82882 10.4888L11.2198 7.05077C11.2878 6.87777 11.3288 6.68777 11.3288 6.48877Z" fill="#5B5B5B"/>
</g>
</svg>
